<svg id="visual" viewBox="0 0 540 960" width="540" height="960" xmlns="http://www.w3.org/2000/svg" xmlns:xlink="http://www.w3.org/1999/xlink" version="1.1"><rect x="0" y="0" width="540" height="960" fill="#FCF2D8"></rect><path d="M0 525L11.3 520.8C22.7 516.7 45.3 508.3 67.8 522.2C90.3 536 112.7 572 135.2 581.3C157.7 590.7 180.3 573.3 202.8 567.8C225.3 562.3 247.7 568.7 270.2 567.2C292.7 565.7 315.3 556.3 337.8 544.3C360.3 532.3 382.7 517.7 405.2 524.2C427.7 530.7 450.3 558.3 472.8 572.2C495.3 586 517.7 586 528.8 586L540 586L540 961L528.8 961C517.7 961 495.3 961 472.8 961C450.3 961 427.7 961 405.2 961C382.7 961 360.3 961 337.8 961C315.3 961 292.7 961 270.2 961C247.7 961 225.3 961 202.8 961C180.3 961 157.7 961 135.2 961C112.7 961 90.3 961 67.8 961C45.3 961 22.7 961 11.3 961L0 961Z" fill="#0066FF" stroke-linecap="round" stroke-linejoin="miter"></path></svg>